<?xml version="1.0" standalone="no"?>
<!DOCTYPE svg PUBLIC "-//W3C//DTD SVG 20010904//EN"
 "http://www.w3.org/TR/2001/REC-SVG-20010904/DTD/svg10.dtd">
<svg version="1.0" xmlns="http://www.w3.org/2000/svg"
 width="744.000000pt" height="744.000000pt" viewBox="0 0 744.000000 744.000000"
 preserveAspectRatio="xMidYMid meet">
<metadata>
Created by potrace 1.14, written by Peter Selinger 2001-2017
</metadata>
<g transform="translate(0.000000,744.000000) scale(0.100000,-0.100000)"
fill="#000000" stroke="none">
<path d="M3235 7417 c-22 -11 -41 -25 -43 -29 -2 -4 -8 -8 -12 -8 -5 0 -63
-31 -129 -70 -66 -38 -125 -70 -130 -70 -5 0 -11 -4 -13 -8 -1 -4 -25 -21 -53
-36 -27 -16 -70 -40 -95 -54 -65 -37 -723 -417 -800 -462 -215 -125 -292 -170
-295 -170 -3 0 -126 -72 -155 -90 -8 -6 -26 -16 -40 -22 -14 -7 -47 -26 -75
-43 -27 -18 -86 -52 -130 -77 -44 -25 -96 -55 -115 -65 -19 -11 -63 -37 -97
-57 -34 -20 -64 -36 -68 -36 -3 0 -11 -5 -18 -10 -16 -14 -162 -100 -212 -125
-22 -11 -42 -22 -45 -25 -7 -7 -42 -29 -59 -37 -8 -4 -74 -41 -146 -83 -72
-42 -138 -80 -146 -83 -8 -4 -27 -15 -44 -25 l-30 -19 -3 -1977 c-1 -1335 1
-1983 8 -1996 11 -20 121 -88 415 -254 44 -25 91 -52 105 -61 139 -82 233
-135 241 -135 5 0 9 -4 9 -8 0 -4 12 -13 28 -20 15 -6 50 -25 77 -41 62 -37
89 -38 120 -6 l25 24 0 1926 c0 1256 3 1933 10 1945 10 19 178 120 199 120 6
0 11 4 11 8 0 5 21 19 46 33 25 13 53 29 62 34 100 59 183 105 192 105 5 0 10
4 10 9 0 5 8 11 18 15 9 3 24 10 32 15 8 5 44 26 80 47 36 21 81 48 101 60 20
12 70 41 111 63 68 37 78 40 107 30 17 -6 36 -19 41 -28 5 -11 9 -1026 9
-2541 1 -2378 2 -2524 18 -2542 9 -11 80 -55 158 -99 77 -44 147 -84 155 -89
14 -9 269 -156 350 -202 19 -11 84 -49 146 -84 102 -59 164 -79 164 -54 0 6 6
10 14 10 7 0 16 10 20 23 3 12 6 1670 6 3685 l0 3663 -25 24 c-29 30 -57 31
-110 2z"/>
<path d="M4110 7420 l-25 -19 0 -1796 0 -1796 25 -19 c14 -10 41 -27 60 -38
63 -34 351 -199 395 -227 11 -7 24 -12 29 -13 5 0 12 -4 15 -9 3 -4 26 -19 51
-32 25 -13 52 -30 61 -37 8 -8 23 -14 32 -14 9 0 17 -4 17 -8 0 -5 15 -16 33
-25 17 -9 39 -21 47 -27 8 -5 43 -26 78 -45 34 -19 90 -51 125 -71 34 -20 78
-45 97 -56 19 -11 76 -45 127 -74 50 -30 96 -54 101 -54 6 0 12 -4 14 -8 3 -8
39 -29 158 -95 30 -16 62 -36 71 -43 8 -8 18 -14 22 -14 5 0 326 -183 367
-209 8 -6 38 -24 66 -40 28 -16 55 -38 59 -48 6 -16 8 -70 6 -216 -1 -52 -22
-80 -84 -112 -18 -8 -47 -25 -66 -36 -86 -51 -299 -174 -326 -187 -16 -9 -32
-18 -35 -21 -3 -3 -18 -13 -35 -21 -16 -8 -37 -19 -45 -26 -8 -6 -40 -25 -70
-41 -30 -17 -99 -56 -152 -87 -121 -70 -144 -79 -168 -66 -48 25 -47 24 -48
307 l-1 268 -29 25 c-27 23 -97 66 -97 59 0 -2 -21 11 -47 29 -26 18 -49 32
-51 32 -3 0 -51 27 -107 60 -56 33 -104 60 -107 60 -3 0 -17 9 -32 19 -14 11
-49 31 -76 46 -56 31 -71 39 -257 148 -74 42 -144 77 -155 77 -11 0 -31 -9
-44 -19 l-24 -19 -1 -1418 -1 -1418 24 -24 c27 -27 64 -27 103 -1 25 16 85 50
150 85 19 11 37 21 40 24 3 3 25 16 50 29 25 14 48 29 52 35 4 6 8 8 8 4 0 -4
16 4 36 17 20 14 43 25 50 25 8 0 14 4 14 9 0 5 16 16 35 25 19 9 80 44 136
76 55 33 105 60 110 60 5 0 9 4 9 8 0 4 12 13 28 19 15 7 48 24 74 40 26 15
97 57 159 93 62 36 138 80 168 98 31 18 75 42 99 54 23 12 42 26 42 30 0 4 9
8 19 8 11 0 21 4 23 8 4 10 146 92 159 92 5 0 9 5 9 10 0 6 4 10 8 10 5 0 118
63 252 140 133 77 246 140 251 140 5 0 9 5 9 10 0 6 4 10 9 10 5 0 49 23 98
51 48 29 108 63 133 77 25 14 62 36 82 49 21 12 42 23 48 23 5 0 10 4 10 9 0
5 8 11 18 14 9 4 43 21 74 39 31 18 109 63 174 101 64 37 121 67 125 67 5 0 9
5 9 10 0 6 4 10 9 10 17 0 146 80 164 101 16 20 17 70 17 739 0 669 -1 719
-17 738 -16 19 -95 67 -243 150 -25 13 -49 28 -55 32 -11 8 -79 46 -165 94
-30 16 -57 32 -60 35 -3 3 -14 11 -25 17 -70 38 -144 80 -189 106 -58 35 -48
29 -301 175 -104 61 -251 145 -325 188 -74 43 -148 85 -165 93 -16 8 -37 21
-45 27 -8 7 -37 25 -65 39 -53 29 -75 41 -115 67 -14 9 -47 28 -75 43 -138 76
-195 113 -205 134 -6 15 -10 221 -10 610 0 559 1 588 19 612 24 30 77 31 118
2 15 -11 51 -31 78 -46 28 -15 73 -40 100 -57 28 -16 58 -33 68 -36 9 -3 17
-9 17 -14 0 -5 4 -9 9 -9 5 0 75 -38 156 -85 80 -47 165 -96 188 -109 182
-103 244 -141 260 -158 15 -18 17 -45 17 -245 l0 -225 29 -26 c15 -15 51 -38
79 -52 29 -14 52 -28 52 -32 0 -5 4 -8 9 -8 8 0 151 -80 161 -90 3 -3 23 -14
45 -26 77 -41 110 -59 115 -64 9 -9 84 -51 113 -63 15 -6 27 -15 27 -19 0 -4
4 -8 10 -8 5 0 43 -20 83 -45 41 -25 80 -45 86 -45 6 0 11 -4 11 -9 0 -5 8
-11 18 -14 9 -4 36 -18 60 -32 53 -31 74 -31 107 -1 l25 23 -2 788 -3 787
-165 95 c-91 53 -276 160 -412 239 -137 79 -252 144 -258 144 -5 0 -10 5 -10
10 0 6 -4 10 -10 10 -5 0 -33 14 -62 31 -49 30 -78 46 -139 81 -13 7 -26 15
-29 18 -3 3 -23 14 -45 25 -22 11 -46 26 -53 32 -7 7 -20 13 -28 13 -8 0 -14
4 -14 9 0 5 -11 12 -25 15 -14 4 -25 11 -25 16 0 6 -5 10 -10 10 -14 0 -224
121 -228 132 -2 4 -12 8 -23 8 -10 0 -19 3 -19 8 0 4 -10 12 -23 18 -39 20
-122 66 -132 74 -5 4 -30 19 -55 32 -65 37 -361 208 -390 226 -14 9 -25 14
-25 11 0 -2 -13 6 -30 17 -16 12 -46 31 -65 41 -38 21 -273 158 -318 184 -15
9 -45 26 -67 39 -22 12 -106 60 -186 106 -80 46 -154 84 -165 84 -10 0 -30 -9
-44 -20z"/>
</g>
</svg>
