<svg xmlns="http://www.w3.org/2000/svg" width="600" height="347"><style>path{fill:#18181b;transform:scale(142%)}</style><path fill-opacity=".2" d="M0 0h20l10 17.32-10 17.321H0L-10 17.32z"/><path fill-opacity=".53" d="M30-17.32h20L60 0 50 17.32H30L20 0z"/><path fill-opacity=".84" d="M60 0h20l10 17.32-10 17.321H60L50 17.32z"/><path fill-opacity=".32" d="M90-17.32h20L120 0l-10 17.32H90L80 0z"/><path fill-opacity=".3" d="M120 0h20l10 17.32-10 17.321h-20L110 17.32z"/><path fill-opacity=".54" d="M150-17.32h20L180 0l-10 17.32h-20L140 0z"/><path fill-opacity=".51" d="M180 0h20l10 17.32-10 17.321h-20L170 17.32z"/><path fill-opacity=".01" d="M210-17.32h20L240 0l-10 17.32h-20L200 0z"/><path fill-opacity=".31" d="M240 0h20l10 17.32-10 17.321h-20L230 17.32z"/><path fill-opacity=".82" d="M270-17.32h20L300 0l-10 17.32h-20L260 0z"/><path fill-opacity=".05" d="M300 0h20l10 17.32-10 17.321h-20L290 17.32z"/><path fill-opacity=".75" d="M330-17.32h20L360 0l-10 17.32h-20L320 0z"/><path fill-opacity=".27" d="M360 0h20l10 17.32-10 17.321h-20L350 17.32z"/><path fill-opacity=".67" d="M390-17.32h20L420 0l-10 17.32h-20L380 0z"/><path fill-opacity=".75" d="M420 0h20l10 17.32-10 17.321h-20L410 17.32z"/><path fill-opacity=".33" d="M450-17.32h20L480 0l-10 17.32h-20L440 0z"/><path fill-opacity=".01" d="M480 0h20l10 17.32-10 17.321h-20L470 17.32z"/><path fill-opacity=".39" d="M510-17.32h20L540 0l-10 17.32h-20L500 0z"/><path fill-opacity=".53" d="M540 0h20l10 17.32-10 17.321h-20L530 17.32z"/><path fill-opacity=".81" d="M570-17.32h20L600 0l-10 17.32h-20L560 0z"/><path fill-opacity=".95" d="M0 34.641h20l10 17.321-10 17.32H0l-10-17.32z"/><path fill-opacity=".82" d="M30 17.32h20l10 17.321-10 17.321H30L20 34.641z"/><path fill-opacity=".15" d="M60 34.641h20l10 17.321-10 17.32H60l-10-17.32z"/><path fill-opacity=".46" d="M90 17.32h20l10 17.321-10 17.321H90L80 34.641z"/><path fill-opacity=".93" d="M120 34.641h20l10 17.321-10 17.32h-20l-10-17.32z"/><path fill-opacity=".88" d="M150 17.32h20l10 17.321-10 17.321h-20l-10-17.321z"/><path fill-opacity=".2" d="M180 34.641h20l10 17.321-10 17.32h-20l-10-17.32z"/><path fill-opacity=".05" d="M210 17.32h20l10 17.321-10 17.321h-20l-10-17.321z"/><path fill-opacity=".95" d="M240 34.641h20l10 17.321-10 17.32h-20l-10-17.32z"/><path fill-opacity=".97" d="M270 17.32h20l10 17.321-10 17.321h-20l-10-17.321z"/><path fill-opacity=".92" d="M300 34.641h20l10 17.321-10 17.32h-20l-10-17.32z"/><path fill-opacity=".27" d="M330 17.32h20l10 17.321-10 17.321h-20l-10-17.321z"/><path fill-opacity=".44" d="M360 34.641h20l10 17.321-10 17.32h-20l-10-17.32z"/><path fill-opacity=".11" d="M390 17.32h20l10 17.321-10 17.321h-20l-10-17.321z"/><path fill-opacity=".65" d="M420 34.641h20l10 17.321-10 17.32h-20l-10-17.32z"/><path fill-opacity=".35" d="M450 17.32h20l10 17.321-10 17.321h-20l-10-17.321z"/><path fill-opacity=".79" d="M480 34.641h20l10 17.321-10 17.32h-20l-10-17.32z"/><path fill-opacity=".58" d="M510 17.32h20l10 17.321-10 17.321h-20l-10-17.321z"/><path fill-opacity=".66" d="M540 34.641h20l10 17.321-10 17.32h-20l-10-17.32z"/><path fill-opacity=".76" d="M570 17.32h20l10 17.321-10 17.321h-20l-10-17.321z"/><path fill-opacity=".89" d="M0 69.282h20l10 17.321-10 17.32H0l-10-17.32z"/><path fill-opacity=".77" d="M30 51.962h20l10 17.32-10 17.321H30L20 69.282z"/><path fill-opacity=".12" d="M60 69.282h20l10 17.321-10 17.32H60l-10-17.32z"/><path fill-opacity=".84" d="M90 51.962h20l10 17.32-10 17.321H90L80 69.282z"/><path fill-opacity=".5" d="M120 69.282h20l10 17.321-10 17.32h-20l-10-17.32z"/><path fill-opacity=".38" d="M150 51.962h20l10 17.32-10 17.321h-20l-10-17.321z"/><path fill-opacity=".41" d="M180 69.282h20l10 17.321-10 17.32h-20l-10-17.32z"/><path fill-opacity=".2" d="M210 51.962h20l10 17.32-10 17.321h-20l-10-17.321z"/><path fill-opacity=".97" d="M240 69.282h20l10 17.321-10 17.32h-20l-10-17.32z"/><path fill-opacity=".14" d="M270 51.962h20l10 17.32-10 17.321h-20l-10-17.321z"/><path fill-opacity=".03" d="M300 69.282h20l10 17.321-10 17.32h-20l-10-17.32z"/><path fill-opacity=".76" d="M330 51.962h20l10 17.32-10 17.321h-20l-10-17.321z"/><path d="M360 69.282h20l10 17.321-10 17.32h-20l-10-17.32z"/><path fill-opacity=".77" d="M390 51.962h20l10 17.32-10 17.321h-20l-10-17.321z"/><path fill-opacity=".02" d="M420 69.282h20l10 17.321-10 17.32h-20l-10-17.32z"/><path fill-opacity=".45" d="M450 51.962h20l10 17.32-10 17.321h-20l-10-17.321z"/><path fill-opacity=".1" d="M480 69.282h20l10 17.321-10 17.32h-20l-10-17.32z"/><path fill-opacity=".17" d="M510 51.962h20l10 17.32-10 17.321h-20l-10-17.321z"/><path fill-opacity=".2" d="M540 69.282h20l10 17.321-10 17.32h-20l-10-17.32z"/><path fill-opacity=".47" d="M570 51.962h20l10 17.32-10 17.321h-20l-10-17.321z"/><path fill-opacity=".74" d="M0 103.923h20l10 17.321-10 17.32H0l-10-17.32z"/><path fill-opacity=".59" d="M30 86.603h20l10 17.32-10 17.321H30l-10-17.321z"/><path fill-opacity=".17" d="M60 103.923h20l10 17.321-10 17.32H60l-10-17.32z"/><path fill-opacity=".65" d="M90 86.603h20l10 17.32-10 17.321H90l-10-17.321z"/><path fill-opacity=".8" d="M120 103.923h20l10 17.321-10 17.32h-20l-10-17.32z"/><path fill-opacity=".02" d="M150 86.603h20l10 17.32-10 17.321h-20l-10-17.321z"/><path fill-opacity=".96" d="M180 103.923h20l10 17.321-10 17.32h-20l-10-17.32z"/><path fill-opacity=".75" d="M210 86.603h20l10 17.32-10 17.321h-20l-10-17.321z"/><path fill-opacity=".29" d="M240 103.923h20l10 17.321-10 17.32h-20l-10-17.32z"/><path fill-opacity=".38" d="M270 86.603h20l10 17.32-10 17.321h-20l-10-17.321z"/><path fill-opacity=".11" d="M300 103.923h20l10 17.321-10 17.32h-20l-10-17.32z"/><path fill-opacity=".63" d="M330 86.603h20l10 17.32-10 17.321h-20l-10-17.321z"/><path fill-opacity=".44" d="M360 103.923h20l10 17.321-10 17.32h-20l-10-17.32z"/><path fill-opacity=".78" d="M390 86.603h20l10 17.32-10 17.321h-20l-10-17.321z"/><path fill-opacity=".63" d="M420 103.923h20l10 17.321-10 17.32h-20l-10-17.32z"/><path fill-opacity=".83" d="M450 86.603h20l10 17.32-10 17.321h-20l-10-17.321z"/><path fill-opacity=".58" d="M480 103.923h20l10 17.321-10 17.32h-20l-10-17.32z"/><path fill-opacity=".14" d="M510 86.603h20l10 17.32-10 17.321h-20l-10-17.321z"/><path fill-opacity=".45" d="M540 103.923h20l10 17.321-10 17.32h-20l-10-17.32z"/><path fill-opacity=".08" d="M570 86.603h20l10 17.32-10 17.321h-20l-10-17.321z"/><path fill-opacity=".31" d="M0 138.564h20l10 17.321-10 17.32H0l-10-17.32z"/><path fill-opacity=".76" d="M30 121.244h20l10 17.32-10 17.321H30l-10-17.321z"/><path fill-opacity=".61" d="M60 138.564h20l10 17.321-10 17.32H60l-10-17.32z"/><path fill-opacity=".13" d="M90 121.244h20l10 17.32-10 17.321H90l-10-17.321z"/><path fill-opacity=".31" d="M120 138.564h20l10 17.321-10 17.32h-20l-10-17.32z"/><path fill-opacity=".28" d="M150 121.244h20l10 17.32-10 17.321h-20l-10-17.321z"/><path fill-opacity=".79" d="M180 138.564h20l10 17.321-10 17.32h-20l-10-17.32z"/><path fill-opacity=".34" d="M210 121.244h20l10 17.32-10 17.321h-20l-10-17.321z"/><path fill-opacity=".54" d="M240 138.564h20l10 17.321-10 17.32h-20l-10-17.32z"/><path fill-opacity=".11" d="M270 121.244h20l10 17.32-10 17.321h-20l-10-17.321z"/><path fill-opacity=".46" d="M300 138.564h20l10 17.321-10 17.32h-20l-10-17.32z"/><path fill-opacity=".39" d="M330 121.244h20l10 17.32-10 17.321h-20l-10-17.321z"/><path fill-opacity=".66" d="M360 138.564h20l10 17.321-10 17.32h-20l-10-17.32z"/><path fill-opacity=".91" d="M390 121.244h20l10 17.32-10 17.321h-20l-10-17.321z"/><path fill-opacity=".76" d="M420 138.564h20l10 17.321-10 17.32h-20l-10-17.32z"/><path fill-opacity=".93" d="M450 121.244h20l10 17.32-10 17.321h-20l-10-17.321z"/><path fill-opacity=".62" d="M480 138.564h20l10 17.321-10 17.32h-20l-10-17.32z"/><path fill-opacity=".67" d="M510 121.244h20l10 17.32-10 17.321h-20l-10-17.321z"/><path fill-opacity=".87" d="M540 138.564h20l10 17.321-10 17.32h-20l-10-17.32z"/><path fill-opacity=".48" d="M570 121.244h20l10 17.32-10 17.321h-20l-10-17.321z"/><path fill-opacity=".29" d="M0 173.205h20l10 17.321-10 17.32H0l-10-17.32z"/><path fill-opacity=".09" d="M30 155.885h20l10 17.32-10 17.321H30l-10-17.321z"/><path fill-opacity=".07" d="M60 173.205h20l10 17.321-10 17.32H60l-10-17.32z"/><path fill-opacity=".72" d="M90 155.885h20l10 17.32-10 17.321H90l-10-17.321z"/><path fill-opacity=".44" d="M120 173.205h20l10 17.321-10 17.32h-20l-10-17.32z"/><path fill-opacity=".7" d="M150 155.885h20l10 17.32-10 17.321h-20l-10-17.321z"/><path fill-opacity=".3" d="M180 173.205h20l10 17.321-10 17.32h-20l-10-17.32z"/><path fill-opacity=".28" d="M210 155.885h20l10 17.32-10 17.321h-20l-10-17.321z"/><path fill-opacity=".15" d="M240 173.205h20l10 17.321-10 17.32h-20l-10-17.32z"/><path fill-opacity=".16" d="M270 155.885h20l10 17.32-10 17.321h-20l-10-17.321z"/><path fill-opacity=".04" d="M300 173.205h20l10 17.321-10 17.32h-20l-10-17.32z"/><path fill-opacity=".57" d="M330 155.885h20l10 17.32-10 17.321h-20l-10-17.321z"/><path fill-opacity=".07" d="M360 173.205h20l10 17.321-10 17.32h-20l-10-17.32z"/><path fill-opacity=".87" d="M390 155.885h20l10 17.32-10 17.321h-20l-10-17.321z"/><path fill-opacity=".45" d="M420 173.205h20l10 17.321-10 17.32h-20l-10-17.32z"/><path fill-opacity=".26" d="M450 155.885h20l10 17.32-10 17.321h-20l-10-17.321z"/><path fill-opacity=".65" d="M480 173.205h20l10 17.321-10 17.32h-20l-10-17.32z"/><path fill-opacity=".61" d="M510 155.885h20l10 17.32-10 17.321h-20l-10-17.321z"/><path fill-opacity=".17" d="M540 173.205h20l10 17.321-10 17.32h-20l-10-17.32z"/><path fill-opacity=".11" d="M570 155.885h20l10 17.32-10 17.321h-20l-10-17.321z"/><path fill-opacity=".14" d="M0 207.846h20l10 17.321-10 17.32H0l-10-17.32z"/><path fill-opacity=".87" d="M30 190.526h20l10 17.32-10 17.321H30l-10-17.321z"/><path fill-opacity=".85" d="M60 207.846h20l10 17.321-10 17.32H60l-10-17.32z"/><path fill-opacity=".35" d="M90 190.526h20l10 17.32-10 17.321H90l-10-17.321z"/><path fill-opacity=".39" d="M120 207.846h20l10 17.321-10 17.32h-20l-10-17.32z"/><path fill-opacity=".25" d="M150 190.526h20l10 17.32-10 17.321h-20l-10-17.321z"/><path fill-opacity=".48" d="M180 207.846h20l10 17.321-10 17.32h-20l-10-17.32z"/><path fill-opacity=".65" d="M210 190.526h20l10 17.32-10 17.321h-20l-10-17.321z"/><path fill-opacity=".82" d="M240 207.846h20l10 17.321-10 17.32h-20l-10-17.32z"/><path fill-opacity=".71" d="M270 190.526h20l10 17.32-10 17.321h-20l-10-17.321z"/><path fill-opacity=".83" d="M300 207.846h20l10 17.321-10 17.32h-20l-10-17.32z"/><path fill-opacity=".2" d="M330 190.526h20l10 17.32-10 17.321h-20l-10-17.321z"/><path fill-opacity=".5" d="M360 207.846h20l10 17.321-10 17.32h-20l-10-17.32z"/><path fill-opacity=".4" d="M390 190.526h20l10 17.32-10 17.321h-20l-10-17.321z"/><path fill-opacity=".56" d="M420 207.846h20l10 17.321-10 17.32h-20l-10-17.32z"/><path fill-opacity=".52" d="M450 190.526h20l10 17.32-10 17.321h-20l-10-17.321z"/><path fill-opacity=".02" d="M480 207.846h20l10 17.321-10 17.32h-20l-10-17.32z"/><path fill-opacity=".27" d="M510 190.526h20l10 17.32-10 17.321h-20l-10-17.321z"/><path fill-opacity=".95" d="M540 207.846h20l10 17.321-10 17.32h-20l-10-17.32z"/><path fill-opacity=".04" d="M570 190.526h20l10 17.32-10 17.321h-20l-10-17.321z"/><path fill-opacity=".49" d="M0 242.487h20l10 17.321-10 17.32H0l-10-17.32z"/><path fill-opacity=".68" d="M30 225.167h20l10 17.32-10 17.321H30l-10-17.321z"/><path fill-opacity=".96" d="M60 242.487h20l10 17.321-10 17.32H60l-10-17.32z"/><path fill-opacity=".8" d="M90 225.167h20l10 17.32-10 17.321H90l-10-17.321z"/><path fill-opacity=".42" d="M120 242.487h20l10 17.321-10 17.32h-20l-10-17.32z"/><path fill-opacity=".74" d="M150 225.167h20l10 17.32-10 17.321h-20l-10-17.321z"/><path fill-opacity=".68" d="M180 242.487h20l10 17.321-10 17.32h-20l-10-17.32z"/><path fill-opacity=".27" d="M210 225.167h20l10 17.32-10 17.321h-20l-10-17.321z"/><path fill-opacity=".74" d="M240 242.487h20l10 17.321-10 17.32h-20l-10-17.32z"/><path fill-opacity=".92" d="M270 225.167h20l10 17.32-10 17.321h-20l-10-17.321z"/><path fill-opacity=".21" d="M300 242.487h20l10 17.321-10 17.32h-20l-10-17.32z"/><path fill-opacity=".17" d="M330 225.167h20l10 17.32-10 17.321h-20l-10-17.321z"/><path fill-opacity=".11" d="M360 242.487h20l10 17.321-10 17.32h-20l-10-17.32z"/><path fill-opacity=".67" d="M390 225.167h20l10 17.32-10 17.321h-20l-10-17.321z"/><path fill-opacity=".6" d="M420 242.487h20l10 17.321-10 17.32h-20l-10-17.32z"/><path fill-opacity=".58" d="M450 225.167h20l10 17.32-10 17.321h-20l-10-17.321z"/><path fill-opacity=".19" d="M480 242.487h20l10 17.321-10 17.32h-20l-10-17.32z"/><path fill-opacity=".21" d="M510 225.167h20l10 17.32-10 17.321h-20l-10-17.321z"/><path fill-opacity=".82" d="M540 242.487h20l10 17.321-10 17.32h-20l-10-17.32z"/><path fill-opacity=".53" d="M570 225.167h20l10 17.32-10 17.321h-20l-10-17.321z"/><path fill-opacity=".22" d="M0 277.128h20l10 17.321-10 17.32H0l-10-17.32z"/><path fill-opacity=".15" d="M30 259.808h20l10 17.32-10 17.321H30l-10-17.321z"/><path fill-opacity=".31" d="M60 277.128h20l10 17.321-10 17.32H60l-10-17.32z"/><path fill-opacity=".12" d="M90 259.808h20l10 17.32-10 17.321H90l-10-17.321z"/><path fill-opacity=".34" d="M120 277.128h20l10 17.321-10 17.32h-20l-10-17.32z"/><path fill-opacity=".36" d="M150 259.808h20l10 17.32-10 17.321h-20l-10-17.321z"/><path fill-opacity=".8" d="M180 277.128h20l10 17.321-10 17.32h-20l-10-17.32z"/><path fill-opacity=".16" d="M210 259.808h20l10 17.32-10 17.321h-20l-10-17.321z"/><path fill-opacity=".28" d="M240 277.128h20l10 17.321-10 17.32h-20l-10-17.32z"/><path fill-opacity=".54" d="M270 259.808h20l10 17.32-10 17.321h-20l-10-17.321z"/><path fill-opacity=".82" d="M300 277.128h20l10 17.321-10 17.32h-20l-10-17.32z"/><path fill-opacity=".4" d="M330 259.808h20l10 17.32-10 17.321h-20l-10-17.321z"/><path fill-opacity=".08" d="M360 277.128h20l10 17.321-10 17.32h-20l-10-17.32z"/><path fill-opacity=".29" d="M390 259.808h20l10 17.32-10 17.321h-20l-10-17.321z"/><path fill-opacity=".01" d="M420 277.128h20l10 17.321-10 17.32h-20l-10-17.32z"/><path fill-opacity=".6" d="M450 259.808h20l10 17.32-10 17.321h-20l-10-17.321z"/><path fill-opacity=".56" d="M480 277.128h20l10 17.321-10 17.32h-20l-10-17.32z"/><path fill-opacity=".24" d="M510 259.808h20l10 17.32-10 17.321h-20l-10-17.321z"/><path fill-opacity=".71" d="M540 277.128h20l10 17.321-10 17.32h-20l-10-17.32z"/><path fill-opacity=".64" d="M570 259.808h20l10 17.32-10 17.321h-20l-10-17.321z"/><path fill-opacity=".2" d="M0 311.769h20l10 17.321-10 17.32H0l-10-17.32z"/><path fill-opacity=".51" d="M30 294.449h20l10 17.32-10 17.321H30l-10-17.321z"/><path fill-opacity=".05" d="M60 311.769h20l10 17.321-10 17.32H60l-10-17.32z"/><path fill-opacity=".51" d="M90 294.449h20l10 17.32-10 17.321H90l-10-17.321z"/><path fill-opacity=".73" d="M120 311.769h20l10 17.321-10 17.32h-20l-10-17.32z"/><path fill-opacity=".75" d="M150 294.449h20l10 17.32-10 17.321h-20l-10-17.321z"/><path fill-opacity=".21" d="M180 311.769h20l10 17.321-10 17.32h-20l-10-17.32z"/><path fill-opacity=".56" d="M210 294.449h20l10 17.32-10 17.321h-20l-10-17.321z"/><path fill-opacity=".07" d="M240 311.769h20l10 17.321-10 17.32h-20l-10-17.32z"/><path fill-opacity=".65" d="M270 294.449h20l10 17.32-10 17.321h-20l-10-17.321z"/><path fill-opacity=".65" d="M300 311.769h20l10 17.321-10 17.32h-20l-10-17.32z"/><path fill-opacity=".14" d="M330 294.449h20l10 17.32-10 17.321h-20l-10-17.321z"/><path fill-opacity=".84" d="M360 311.769h20l10 17.321-10 17.32h-20l-10-17.32z"/><path fill-opacity=".98" d="M390 294.449h20l10 17.32-10 17.321h-20l-10-17.321z"/><path fill-opacity=".75" d="M420 311.769h20l10 17.321-10 17.32h-20l-10-17.32z"/><path fill-opacity=".02" d="M450 294.449h20l10 17.32-10 17.321h-20l-10-17.321z"/><path fill-opacity=".81" d="M480 311.769h20l10 17.321-10 17.32h-20l-10-17.32z"/><path fill-opacity="0" d="M510 294.449h20l10 17.32-10 17.321h-20l-10-17.321z"/><path fill-opacity=".89" d="M540 311.769h20l10 17.321-10 17.32h-20l-10-17.32z"/><path fill-opacity=".85" d="M570 294.449h20l10 17.32-10 17.321h-20l-10-17.321z"/><path fill-opacity=".2" d="M600 0h20l10 17.32-10 17.321h-20L590 17.32z"/><path fill-opacity=".53" d="M30 329.09h20l10 17.32-10 17.321H30L20 346.41z"/><path fill-opacity=".32" d="M90 329.09h20l10 17.32-10 17.321H90L80 346.41z"/><path fill-opacity=".54" d="M150 329.09h20l10 17.32-10 17.321h-20l-10-17.321z"/><path fill-opacity=".01" d="M210 329.09h20l10 17.32-10 17.321h-20l-10-17.321z"/><path fill-opacity=".82" d="M270 329.09h20l10 17.32-10 17.321h-20l-10-17.321z"/><path fill-opacity=".75" d="M330 329.09h20l10 17.32-10 17.321h-20l-10-17.321z"/><path fill-opacity=".67" d="M390 329.09h20l10 17.32-10 17.321h-20l-10-17.321z"/><path fill-opacity=".33" d="M450 329.09h20l10 17.32-10 17.321h-20l-10-17.321z"/><path fill-opacity=".39" d="M510 329.09h20l10 17.32-10 17.321h-20l-10-17.321z"/><path fill-opacity=".81" d="M570 329.09h20l10 17.32-10 17.321h-20l-10-17.321z"/><path fill-opacity=".95" d="M600 34.641h20l10 17.321-10 17.32h-20l-10-17.32z"/><path fill-opacity=".89" d="M600 69.282h20l10 17.321-10 17.32h-20l-10-17.32z"/><path fill-opacity=".74" d="M600 103.923h20l10 17.321-10 17.32h-20l-10-17.32z"/><path fill-opacity=".31" d="M600 138.564h20l10 17.321-10 17.32h-20l-10-17.32z"/><path fill-opacity=".29" d="M600 173.205h20l10 17.321-10 17.32h-20l-10-17.32z"/><path fill-opacity=".14" d="M600 207.846h20l10 17.321-10 17.32h-20l-10-17.32z"/><path fill-opacity=".49" d="M600 242.487h20l10 17.321-10 17.32h-20l-10-17.32z"/><path fill-opacity=".22" d="M600 277.128h20l10 17.321-10 17.32h-20l-10-17.32z"/><path fill-opacity=".2" d="M600 311.769h20l10 17.321-10 17.32h-20l-10-17.32z"/></svg>
