
<svg xmlns="http://www.w3.org/2000/svg" width="425.198" height="425.197"><path d="M-585.85 199.759a6.56 6.56 0 0 0-6.57 6.57v16.29c0 3.208-7.02 5.01-7.02 5.01-7.58 1.023-15.028 2.535-22.291 4.44-.006 0-7.142.986-8.37-1.98-1.228-2.964-6.18-15-6.18-15-1.392-3.362-5.279-4.991-8.64-3.6l-21.42 8.91c-3.36 1.392-4.934 5.249-3.54 8.61 0 0 5.011 12.033 6.24 15 1.228 2.963-4.56 7.321-4.56 7.321-6.57 3.84-12.905 8.04-18.931 12.63 0 .001-6.19 3.647-8.46 1.38-2.269-2.273-11.49-11.49-11.49-11.49a6.604 6.604 0 0 0-9.331 0l-16.38 16.38a6.569 6.569 0 0 0 0 9.3s9.252 9.25 11.52 11.52c2.269 2.27-1.38 8.46-1.38 8.46-4.593 6.03-8.787 12.355-12.63 18.93.002 0-4.386 5.729-7.35 4.5-2.965-1.23-15-6.21-15-6.21-3.36-1.391-7.217.213-8.61 3.57l-8.85 21.42a6.548 6.548 0 0 0 3.54 8.581s12.034 5.012 15 6.24c2.965 1.23 2.01 8.37 2.01 8.37a185.748 185.748 0 0 0-4.41 22.291h-.06c0 .001-1.801 7.022-5.01 7.02h-16.23c-3.638.001-6.63 2.93-6.63 6.57v23.131c0 3.636 2.99 6.57 6.63 6.57h16.23c3.207 0 5.01 7.02 5.01 7.02h.06a185.726 185.726 0 0 0 4.41 22.38c.035.28.954 7.08-1.95 8.28-2.965 1.227-15.06 6.24-15.06 6.24a6.548 6.548 0 0 0-3.541 8.58l8.85 21.42a6.599 6.599 0 0 0 8.61 3.57s12.034-4.984 15-6.21c2.964-1.227 7.35 4.5 7.35 4.5 3.844 6.576 8.038 12.9 12.63 18.932.003 0 3.651 6.191 1.38 8.46l-11.52 11.52a6.57 6.57 0 0 0 0 9.3l16.38 16.38a6.607 6.607 0 0 0 9.33 0s9.221-9.222 11.491-11.49c2.269-2.27 8.46 1.38 8.46 1.38 6.031 4.593 12.355 8.787 18.931 12.63.002-.001 5.791 4.358 4.56 7.32-1.23 2.965-6.24 15-6.24 15-1.39 3.357.18 7.215 3.54 8.61l21.42 8.91c3.36 1.394 7.247-.24 8.64-3.6 0 0 4.95-12.035 6.18-15 1.227-2.965 8.37-1.98 8.37-1.98 7.263 1.905 14.712 3.417 22.291 4.44 0 0 7.024 1.8 7.02 5.01v16.29a6.561 6.561 0 0 0 6.57 6.57h23.19a6.56 6.56 0 0 0 6.571-6.57v-16.29c0-3.207 6.96-5.01 6.96-5.01 7.6-1.025 15.07-2.528 22.35-4.44-.002-.001 7.084-.985 8.31 1.98 1.229 2.965 6.27 15 6.27 15 1.392 3.358 5.247 4.99 8.61 3.6l21.391-8.91c3.359-1.395 4.929-5.247 3.54-8.61l-6.21-15c-1.228-2.965 4.5-7.32 4.5-7.32 6.576-3.844 12.9-8.037 18.93-12.63 0 0 6.222-3.65 8.491-1.38 2.27 2.268 11.49 11.49 11.49 11.49a6.615 6.615 0 0 0 9.33 0l16.35-16.38a6.569 6.569 0 0 0 0-9.3s-9.218-9.253-11.49-11.52c-2.27-2.272 1.38-8.46 1.38-8.46a186.862 186.862 0 0 0 12.69-18.931s4.329-5.788 7.291-4.56c2.967 1.23 15.03 6.27 15.03 6.27 3.36 1.389 7.186-.211 8.58-3.57l8.88-21.42c1.39-3.362-.24-7.186-3.6-8.58 0 0-12.034-5.012-15-6.24-2.965-1.229-1.98-8.37-1.98-8.37 1.905-7.263 3.417-14.712 4.44-22.291 0 0 1.834-7.024 5.04-7.02h16.261a6.563 6.563 0 0 0 6.57-6.57v-23.131c0-3.636-2.932-6.63-6.57-6.63h-16.26c-3.21 0-5.04-6.96-5.04-6.96-1.024-7.58-2.536-15.029-4.441-22.291 0 0-.984-7.144 1.98-8.37 2.965-1.227 15-6.24 15-6.24 3.36-1.392 4.99-5.249 3.6-8.61l-8.88-21.391a6.564 6.564 0 0 0-8.58-3.57s-12.062 4.98-15.03 6.21c-2.964 1.23-7.29-4.5-7.29-4.5a186.874 186.874 0 0 0-12.69-18.93c0-.004-3.65-6.192-1.38-8.461 2.27-2.267 11.49-11.52 11.49-11.52a6.572 6.572 0 0 0 0-9.3l-16.34-16.35a6.612 6.612 0 0 0-9.33 0s-9.219 9.222-11.49 11.49c-2.269 2.273-8.49-1.38-8.49-1.38-6.027-4.59-12.361-8.789-18.931-12.63.002.002-5.729-4.354-4.5-7.32 1.23-2.964 6.21-15 6.21-15 1.391-3.36-.181-7.215-3.54-8.61l-21.39-8.918c-3.36-1.39-7.218.24-8.61 3.6 0 0-5.04 12.034-6.27 15-1.227 2.965-8.31 1.98-8.31 1.98a185.8 185.8 0 0 0-22.35-4.44s-6.96-1.803-6.96-5.01v-16.29c0-3.637-2.993-6.571-6.63-6.571h-23.131zm11.58 53.91c87.635 0 158.672 71.068 158.672 158.701 0 87.636-71.038 158.673-158.672 158.673-87.636 0-158.672-71.038-158.672-158.673s71.037-158.7 158.672-158.7z" style="fill:#000" transform="translate(786.884 -199.759)"/></svg>
