<svg id="Layer_2" data-name="Layer 2" xmlns="http://www.w3.org/2000/svg" viewBox="0 0 86.6 93.47">
  <defs>
    <style>
      .cls-1 {
        fill: #231f20;
      }
    </style>
  </defs>
  <g id="Layer_1-2" data-name="Layer 1">
    <path class="cls-1" d="M86.6,21.73v19.43c0,.7-.76,1.14-1.37,.79l-11.11-6.41c-.28-.16-.46-.46-.46-.79v-5.03c0-.33-.17-.63-.46-.79l-11.11-6.41c-.61-.35-1.37,.09-1.37,.79v14.4c0,.33,.17,.63,.46,.79l24.95,14.4c.28,.16,.46,.46,.46,.79v17.52c0,.33-.17,.63-.46,.79l-12.47,7.2h0s-24.5,14.14-24.5,14.14c-.61,.35-1.37-.09-1.37-.79V57.7c0-.7,.76-1.14,1.37-.79l11.11,6.41c.28,.16,.46,.46,.46,.79v6.03c0,.7,.76,1.14,1.37,.79l11.11-6.41c.28-.16,.46-.46,.46-.79v-2.58c0-.33-.17-.63-.46-.79l-24.95-14.41c-.28-.16-.46-.46-.46-.79V.92c0-.7,.76-1.14,1.37-.79l37.42,21.61ZM0,21.73H0s0,0,0,0v49.47c0,.33,.18,.63,.46,.79l11.11,6.41c.61,.35,1.37-.09,1.37-.79V29.73c0-.33,.17-.63,.46-.79l11.11-6.41c.61-.35,1.37,.09,1.37,.79v62.83c0,.33,.17,.63,.46,.79l11.11,6.41c.61,.35,1.37-.09,1.37-.79V.91c0-.7-.76-1.14-1.37-.79L0,21.73Z"/>
  </g>
</svg>
