<svg xmlns="http://www.w3.org/2000/svg" data-name="Layer 2" viewBox="0 0 86.6 93.47"><path d="M86.6 21.73v19.43c0 .7-.76 1.14-1.37.79l-11.11-6.41a.912.912 0 0 1-.46-.79v-5.03c0-.33-.17-.63-.46-.79l-11.11-6.41a.914.914 0 0 0-1.37.79v14.4c0 .33.17.63.46.79l24.95 14.4c.28.16.46.46.46.79v17.52c0 .33-.17.63-.46.79l-12.47 7.2-24.5 14.14a.914.914 0 0 1-1.37-.79V57.7c0-.7.76-1.14 1.37-.79l11.11 6.41c.28.16.46.46.46.79v6.03c0 .7.76 1.14 1.37.79l11.11-6.41c.28-.16.46-.46.46-.79v-2.58c0-.33-.17-.63-.46-.79L48.26 45.95a.912.912 0 0 1-.46-.79V.92c0-.7.76-1.14 1.37-.79l37.42 21.61Zm-86.6 0V71.2c0 .33.18.63.46.79l11.11 6.41a.914.914 0 0 0 1.37-.79V29.73c0-.33.17-.63.46-.79l11.11-6.41a.914.914 0 0 1 1.37.79v62.83c0 .33.17.63.46.79l11.11 6.41a.914.914 0 0 0 1.37-.79V.91c0-.7-.76-1.14-1.37-.79L0 21.73Z" data-name="Layer 1" style="fill:#fff"/></svg>
