<svg xmlns="http://www.w3.org/2000/svg" viewBox="0 0 420.94 93.47">
  <path fill="#111827" d="M121.19 71.78h-4.83c-.88 0-1.32-.44-1.32-1.32V23.01c0-.88.44-1.33 1.32-1.33h4.36c.83 0 1.4.29 1.71.86l18.85 33.89h.31V23.01c0-.88.44-1.33 1.32-1.33h4.83c.88 0 1.32.44 1.32 1.33v47.45c0 .88-.44 1.32-1.32 1.32h-4.21c-.83 0-1.51-.42-2.03-1.25l-18.7-33.5h-.31v33.42c0 .88-.44 1.32-1.32 1.32Zm79.69 0h-4.91c-.88 0-1.32-.44-1.32-1.32V23.01c0-.88.44-1.33 1.32-1.33h18.23c3.79 0 6.76 1.08 8.92 3.23 2.15 2.16 3.23 5.13 3.23 8.92v6.54c0 5.97-2.47 9.74-7.4 11.3v.31l8.65 18.23c.57 1.04.23 1.56-1.01 1.56h-4.83c-1.25 0-2.05-.44-2.42-1.32L211 52.53h-7.87c-.62 0-.94.26-.94.78v17.14c0 .88-.44 1.32-1.32 1.32Zm2.18-25.48h9.9c3.84 0 5.77-1.9 5.77-5.69v-6.54c0-3.84-1.92-5.77-5.77-5.77h-9.9c-.57 0-.86.26-.86.78v16.44c0 .52.28.78.86.78Zm32.96 24.15V23.01c0-.88.44-1.33 1.32-1.33h19.17c3.79 0 6.77 1.05 8.92 3.16 2.15 2.1 3.23 5.08 3.23 8.92V59.7c0 3.79-1.08 6.75-3.23 8.88-2.16 2.13-5.13 3.19-8.92 3.19h-19.17c-.88 0-1.32-.44-1.32-1.32Zm8.41-5.3h10.99c3.74 0 5.61-1.92 5.61-5.77V34.06c0-3.84-1.87-5.77-5.61-5.77h-10.99c-.57 0-.86.26-.86.78v35.22c0 .57.28.86.86.86Zm32.64-5.53v-2.03c0-.88.44-1.33 1.32-1.33h4.99c.88 0 1.32.44 1.32 1.33v1.4c0 2.18.48 3.75 1.44 4.71s2.56 1.44 4.79 1.44h5.38c2.23 0 3.84-.51 4.83-1.52s1.48-2.66 1.48-4.95v-1.79c0-1.66-.64-2.97-1.91-3.93s-2.84-1.58-4.71-1.87a83.69 83.69 0 0 1-6.15-1.21c-2.23-.52-4.29-1.12-6.16-1.79-1.87-.67-3.44-1.95-4.71-3.82-1.27-1.87-1.91-4.26-1.91-7.17v-3.27c0-3.79 1.08-6.76 3.23-8.92 2.15-2.15 5.13-3.23 8.92-3.23h8.26c3.84 0 6.84 1.08 9 3.23 2.15 2.16 3.23 5.13 3.23 8.92v1.71c0 .88-.44 1.33-1.32 1.33h-4.99c-.88 0-1.32-.44-1.32-1.33v-1.01c0-2.23-.48-3.83-1.44-4.79s-2.56-1.44-4.79-1.44h-4.91c-2.23 0-3.83.51-4.79 1.52s-1.44 2.74-1.44 5.18v2.42c0 2.34 1.69 3.92 5.06 4.75 1.51.36 3.16.68 4.95.93 1.79.26 3.6.65 5.41 1.17 1.82.52 3.48 1.21 4.99 2.06 1.51.86 2.73 2.16 3.66 3.9.93 1.74 1.4 3.86 1.4 6.35v3.04c0 3.79-1.08 6.77-3.23 8.92-2.16 2.16-5.13 3.23-8.92 3.23h-8.73c-3.79 0-6.78-1.08-8.96-3.23-2.18-2.15-3.27-5.13-3.27-8.92Zm56.12 12.15h-4.91c-.93 0-1.4-.44-1.4-1.32V29.09c0-.52-.26-.78-.78-.78h-9.82c-.93 0-1.4-.44-1.4-1.33v-3.97c0-.88.47-1.33 1.4-1.33h28.91c.93 0 1.4.44 1.4 1.33v3.97c0 .88-.47 1.33-1.4 1.33h-9.82c-.57 0-.86.26-.86.78v41.37c0 .88-.44 1.32-1.32 1.32Zm62.02 0h-4.91c-.88 0-1.32-.44-1.32-1.32V23.01c0-.88.44-1.33 1.32-1.33h18.54c3.79 0 6.75 1.05 8.88 3.16 2.13 2.1 3.19 5.08 3.19 8.92v8.1c0 3.79-1.07 6.75-3.19 8.88-2.13 2.13-5.09 3.19-8.88 3.19h-11.38c-.62 0-.93.26-.93.78v15.74c0 .88-.44 1.32-1.32 1.32Zm2.18-24.54h10.36c3.69 0 5.53-1.92 5.53-5.77v-7.4c0-3.84-1.84-5.77-5.53-5.77h-10.36c-.57 0-.86.26-.86.78v17.37c0 .52.29.78.86.78ZM184.38 28.31h-24.85c-.88 0-1.33-.47-1.33-1.4v-3.82c0-.93.44-1.4 1.33-1.4h24.85c.88 0 1.33.47 1.33 1.4v3.82c0 .93-.44 1.4-1.33 1.4Zm0 21.31h-24.85c-.88 0-1.33-.47-1.33-1.4V44.4c0-.93.44-1.4 1.33-1.4h24.85c.88 0 1.33.47 1.33 1.4v3.82c0 .93-.44 1.4-1.33 1.4Zm0 22.17h-24.85c-.88 0-1.33-.47-1.33-1.4v-3.82c0-.93.44-1.4 1.33-1.4h24.85c.88 0 1.33.47 1.33 1.4v3.82c0 .93-.44 1.4-1.33 1.4Zm194.53-43.48h-24.85c-.88 0-1.33-.47-1.33-1.4v-3.82c0-.93.44-1.4 1.33-1.4h24.85c.88 0 1.33.47 1.33 1.4v3.82c0 .93-.44 1.4-1.33 1.4Zm.39 21.31h-24.85c-.88 0-1.33-.47-1.33-1.4V44.4c0-.93.44-1.4 1.33-1.4h24.85c.88 0 1.33.47 1.33 1.4v3.82c0 .93-.44 1.4-1.33 1.4Zm0 22.17h-24.85c-.88 0-1.33-.47-1.33-1.4v-3.82c0-.93.44-1.4 1.33-1.4h24.85c.88 0 1.33.47 1.33 1.4v3.82c0 .93-.44 1.4-1.33 1.4ZM86.6 21.73v19.43c0 .7-.76 1.14-1.37.79l-11.11-6.41a.912.912 0 0 1-.46-.79v-5.03c0-.33-.17-.63-.46-.79l-11.11-6.41a.914.914 0 0 0-1.37.79v14.4c0 .33.17.63.46.79l24.95 14.4c.28.16.46.46.46.79v17.52c0 .33-.17.63-.46.79l-12.47 7.2-24.5 14.14a.914.914 0 0 1-1.37-.79V57.7c0-.7.76-1.14 1.37-.79l11.11 6.41c.28.16.46.46.46.79v6.03c0 .7.76 1.14 1.37.79l11.11-6.41c.28-.16.46-.46.46-.79v-2.58c0-.33-.17-.63-.46-.79L48.26 45.95a.912.912 0 0 1-.46-.79V.92c0-.7.76-1.14 1.37-.79l37.42 21.61Zm-86.6 0V71.2c0 .33.18.63.46.79l11.11 6.41a.914.914 0 0 0 1.37-.79V29.73c0-.33.17-.63.46-.79l11.11-6.41a.914.914 0 0 1 1.37.79v62.83c0 .33.17.63.46.79l11.11 6.41a.914.914 0 0 0 1.37-.79V.91c0-.7-.76-1.14-1.37-.79L0 21.73Z" />
</svg>
